<svg width="20" height="20" viewBox="0 0 20 20" fill="none" xmlns="http://www.w3.org/2000/svg">
<path d="M17.3093 7.63L16.1693 4.20917C16.004 3.71124 15.6859 3.27808 15.2603 2.97126C14.8347 2.66443 14.3232 2.49953 13.7985 2.5H6.20018C5.67551 2.49953 5.16403 2.66443 4.73842 2.97126C4.31281 3.27808 3.99472 3.71124 3.82935 4.20917L2.68935 7.63C2.38653 7.75707 2.12791 7.97063 1.94589 8.24397C1.76386 8.51731 1.66651 8.83827 1.66602 9.16667V13.3333C1.66602 13.9608 2.01852 14.5017 2.53185 14.7858C2.52102 14.8408 2.49935 14.8908 2.49935 14.9483V16.6667C2.49935 16.8877 2.58715 17.0996 2.74343 17.2559C2.89971 17.4122 3.11167 17.5 3.33268 17.5H4.16602C4.38703 17.5 4.59899 17.4122 4.75527 17.2559C4.91155 17.0996 4.99935 16.8877 4.99935 16.6667V15H14.9993V16.6667C14.9993 16.8877 15.0871 17.0996 15.2434 17.2559C15.3997 17.4122 15.6117 17.5 15.8327 17.5H16.666C16.887 17.5 17.099 17.4122 17.2553 17.2559C17.4116 17.0996 17.4993 16.8877 17.4993 16.6667V14.9483C17.4993 14.8908 17.4777 14.84 17.4669 14.7858C17.728 14.6434 17.9462 14.4335 18.0985 14.178C18.2508 13.9225 18.3317 13.6308 18.3327 13.3333V9.16667C18.3327 8.47583 17.9093 7.8825 17.3093 7.63ZM3.33268 13.3333V9.16667H16.666L16.6677 13.3333H3.33268ZM6.20018 4.16667H13.7977C14.1568 4.16667 14.4752 4.395 14.5885 4.73667L15.5102 7.5H4.48852L5.40935 4.73667C5.46464 4.57066 5.57078 4.42627 5.71272 4.32397C5.85467 4.22166 6.02521 4.16663 6.20018 4.16667Z" fill="#D4CCFF"/>
<path d="M5.41602 12.5C6.10637 12.5 6.66602 11.9404 6.66602 11.25C6.66602 10.5596 6.10637 10 5.41602 10C4.72566 10 4.16602 10.5596 4.16602 11.25C4.16602 11.9404 4.72566 12.5 5.41602 12.5Z" fill="#D4CCFF"/>
<path d="M14.582 12.5C15.2724 12.5 15.832 11.9404 15.832 11.25C15.832 10.5596 15.2724 10 14.582 10C13.8917 10 13.332 10.5596 13.332 11.25C13.332 11.9404 13.8917 12.5 14.582 12.5Z" fill="#D4CCFF"/>
</svg>
