<svg width="20" height="20" viewBox="0 0 20 20" fill="none" xmlns="http://www.w3.org/2000/svg">
<path fill-rule="evenodd" clip-rule="evenodd" d="M14.584 12.4997C14.2072 12.4997 13.6748 12.5518 13.1205 12.6277C12.8616 12.6631 12.6641 12.8606 12.6286 13.1195C12.5527 13.6738 12.5007 14.2062 12.5007 14.583C12.5007 14.9598 12.5527 15.4922 12.6286 16.0465C12.6641 16.3054 12.8616 16.5029 13.1205 16.5383C13.6748 16.6143 14.2072 16.6663 14.584 16.6663C14.9608 16.6663 15.4932 16.6143 16.0475 16.5383C16.3064 16.5029 16.5039 16.3054 16.5393 16.0465C16.6152 15.4922 16.6673 14.9598 16.6673 14.583C16.6673 14.2062 16.6152 13.6738 16.5393 13.1195C16.5039 12.8606 16.3064 12.6631 16.0475 12.6277C15.4932 12.5518 14.9608 12.4997 14.584 12.4997ZM12.8943 10.9764C11.8944 11.1134 11.1143 11.8935 10.9774 12.8934C10.8988 13.4669 10.834 14.0898 10.834 14.583C10.834 15.0762 10.8988 15.6991 10.9774 16.2726C11.1143 17.2726 11.8944 18.0527 12.8943 18.1896C13.4679 18.2681 14.0908 18.333 14.584 18.333C15.0772 18.333 15.7001 18.2681 16.2736 18.1896C17.2735 18.0527 18.0536 17.2726 18.1906 16.2726C18.2691 15.6991 18.334 15.0762 18.334 14.583C18.334 14.0898 18.2691 13.4669 18.1906 12.8934C18.0536 11.8935 17.2735 11.1134 16.2736 10.9764C15.7001 10.8979 15.0772 10.833 14.584 10.833C14.0908 10.833 13.4679 10.8979 12.8943 10.9764Z" fill="#D4CCFF"/>
<path fill-rule="evenodd" clip-rule="evenodd" d="M5.41602 12.4997C5.0392 12.4997 4.50679 12.5518 3.95252 12.6277C3.69359 12.6631 3.49614 12.8606 3.46068 13.1195C3.38477 13.6738 3.33268 14.2062 3.33268 14.583C3.33268 14.9598 3.38477 15.4922 3.46068 16.0465C3.49614 16.3054 3.69359 16.5029 3.95252 16.5383C4.50679 16.6143 5.0392 16.6663 5.41602 16.6663C5.79283 16.6663 6.32524 16.6143 6.87951 16.5383C7.13845 16.5029 7.33589 16.3054 7.37135 16.0465C7.44726 15.4922 7.49935 14.9598 7.49935 14.583C7.49935 14.2062 7.44726 13.6738 7.37135 13.1195C7.33589 12.8606 7.13845 12.6631 6.87951 12.6277C6.32524 12.5518 5.79283 12.4997 5.41602 12.4997ZM3.72638 10.9764C2.72646 11.1134 1.94637 11.8935 1.80943 12.8934C1.73088 13.4669 1.66602 14.0898 1.66602 14.583C1.66602 15.0762 1.73088 15.6991 1.80943 16.2726C1.94637 17.2726 2.72646 18.0527 3.72638 18.1896C4.29989 18.2681 4.92282 18.333 5.41602 18.333C5.90921 18.333 6.53214 18.2681 7.10565 18.1896C8.10557 18.0527 8.88566 17.2726 9.02261 16.2726C9.10115 15.6991 9.16602 15.0762 9.16602 14.583C9.16602 14.0898 9.10115 13.4669 9.02261 12.8934C8.88566 11.8935 8.10557 11.1134 7.10565 10.9764C6.53214 10.8979 5.90921 10.833 5.41602 10.833C4.92282 10.833 4.29989 10.8979 3.72638 10.9764Z" fill="#D4CCFF"/>
<path fill-rule="evenodd" clip-rule="evenodd" d="M14.584 3.33366C14.2072 3.33366 13.6748 3.38575 13.1205 3.46165C12.8616 3.49712 12.6641 3.69456 12.6286 3.9535C12.5527 4.50776 12.5007 5.04017 12.5007 5.41699C12.5007 5.79381 12.5527 6.32622 12.6286 6.88048C12.6641 7.13942 12.8616 7.33687 13.1205 7.37233C13.6748 7.44824 14.2072 7.50033 14.584 7.50033C14.9608 7.50033 15.4932 7.44824 16.0475 7.37233C16.3064 7.33687 16.5039 7.13942 16.5393 6.88048C16.6152 6.32622 16.6673 5.79381 16.6673 5.41699C16.6673 5.04017 16.6152 4.50776 16.5393 3.9535C16.5039 3.69456 16.3064 3.49712 16.0475 3.46165C15.4932 3.38575 14.9608 3.33366 14.584 3.33366ZM12.8943 1.8104C11.8944 1.94734 11.1143 2.72744 10.9774 3.72736C10.8988 4.30086 10.834 4.92379 10.834 5.41699C10.834 5.91019 10.8988 6.53312 10.9774 7.10663C11.1143 8.10655 11.8944 8.88664 12.8943 9.02358C13.4679 9.10213 14.0908 9.16699 14.584 9.16699C15.0772 9.16699 15.7001 9.10213 16.2736 9.02358C17.2735 8.88664 18.0536 8.10655 18.1906 7.10663C18.2691 6.53312 18.334 5.91019 18.334 5.41699C18.334 4.92379 18.2691 4.30086 18.1906 3.72736C18.0536 2.72744 17.2735 1.94734 16.2736 1.8104C15.7001 1.73186 15.0772 1.66699 14.584 1.66699C14.0908 1.66699 13.4679 1.73186 12.8943 1.8104Z" fill="#D4CCFF"/>
<path fill-rule="evenodd" clip-rule="evenodd" d="M5.41602 3.33366C5.0392 3.33366 4.50679 3.38575 3.95252 3.46165C3.69359 3.49712 3.49614 3.69456 3.46068 3.9535C3.38477 4.50776 3.33268 5.04017 3.33268 5.41699C3.33268 5.79381 3.38477 6.32622 3.46068 6.88048C3.49614 7.13942 3.69359 7.33687 3.95252 7.37233C4.50679 7.44824 5.0392 7.50033 5.41602 7.50033C5.79283 7.50033 6.32524 7.44824 6.87951 7.37233C7.13845 7.33687 7.33589 7.13942 7.37135 6.88048C7.44726 6.32622 7.49935 5.79381 7.49935 5.41699C7.49935 5.04017 7.44726 4.50776 7.37135 3.9535C7.33589 3.69456 7.13845 3.49712 6.87951 3.46165C6.32524 3.38575 5.79283 3.33366 5.41602 3.33366ZM3.72638 1.8104C2.72646 1.94734 1.94637 2.72744 1.80943 3.72736C1.73088 4.30086 1.66602 4.92379 1.66602 5.41699C1.66602 5.91019 1.73088 6.53312 1.80943 7.10663C1.94637 8.10655 2.72646 8.88664 3.72638 9.02358C4.29989 9.10213 4.92282 9.16699 5.41602 9.16699C5.90921 9.16699 6.53214 9.10213 7.10565 9.02358C8.10557 8.88664 8.88566 8.10655 9.02261 7.10663C9.10115 6.53312 9.16602 5.91019 9.16602 5.41699C9.16602 4.92379 9.10115 4.30086 9.02261 3.72736C8.88566 2.72744 8.10557 1.94734 7.10565 1.8104C6.53214 1.73186 5.90921 1.66699 5.41602 1.66699C4.92282 1.66699 4.29989 1.73186 3.72638 1.8104Z" fill="#D4CCFF"/>
</svg>
