<svg width="20" height="20" viewBox="0 0 20 20" fill="none" xmlns="http://www.w3.org/2000/svg">
<path d="M18.0886 3.08958C18.414 2.76414 18.414 2.23651 18.0886 1.91107C17.7632 1.58563 17.2355 1.58563 16.9101 1.91107L6.49343 12.3277C6.16799 12.6532 6.16799 13.1808 6.49343 13.5062C6.81886 13.8317 7.3465 13.8317 7.67194 13.5062L18.0886 3.08958Z" fill="#5007E0"/>
<path d="M4.3386 16.8396C4.66404 16.5141 4.66404 15.9865 4.3386 15.6611C4.01317 15.3356 3.48553 15.3356 3.16009 15.6611L1.91009 16.9111C1.58466 17.2365 1.58466 17.7641 1.91009 18.0896C2.23553 18.415 2.76317 18.415 3.0886 18.0896L4.3386 16.8396Z" fill="#5007E0"/>
<path fill-rule="evenodd" clip-rule="evenodd" d="M5.20524 16.1821C5.43628 16.4132 5.7943 16.5017 6.04817 16.296C6.42532 15.9904 6.66641 15.5235 6.66641 15.0003C6.66641 14.0799 5.92022 13.3337 4.99975 13.3337C4.47653 13.3337 4.00963 13.5748 3.70407 13.9519C3.49839 14.2058 3.5869 14.5638 3.81794 14.7948L5.20524 16.1821ZM6.01901 18.1749C5.38766 18.3775 4.73635 18.0703 4.26751 17.6014L2.39865 15.7326C1.9298 15.2637 1.62259 14.6124 1.82513 13.9811C2.25578 12.6387 3.51429 11.667 4.99975 11.667C6.8407 11.667 8.33308 13.1594 8.33308 15.0003C8.33308 16.4858 7.36142 17.7443 6.01901 18.1749Z" fill="#5007E0"/>
<path d="M1.91139 3.08958C1.58596 2.76414 1.58596 2.23651 1.91139 1.91107C2.23683 1.58563 2.76447 1.58563 3.08991 1.91107L13.5066 12.3277C13.832 12.6532 13.832 13.1808 13.5066 13.5062C13.1811 13.8317 12.6535 13.8317 12.3281 13.5062L1.91139 3.08958Z" fill="#5007E0"/>
<path d="M15.6614 16.8396C15.336 16.5141 15.336 15.9865 15.6614 15.6611C15.9868 15.3356 16.5145 15.3356 16.8399 15.6611L18.0899 16.9111C18.4153 17.2365 18.4153 17.7641 18.0899 18.0896C17.7645 18.415 17.2368 18.415 16.9114 18.0896L15.6614 16.8396Z" fill="#5007E0"/>
<path fill-rule="evenodd" clip-rule="evenodd" d="M14.7948 16.1821C14.5637 16.4132 14.2057 16.5017 13.9518 16.296C13.5747 15.9904 13.3336 15.5235 13.3336 15.0003C13.3336 14.0799 14.0798 13.3337 15.0003 13.3337C15.5235 13.3337 15.9904 13.5748 16.2959 13.9519C16.5016 14.2058 16.4131 14.5638 16.1821 14.7948L14.7948 16.1821ZM13.981 18.1749C14.6123 18.3775 15.2636 18.0703 15.7325 17.6014L17.6014 15.7326C18.0702 15.2637 18.3774 14.6124 18.1749 13.9811C17.7442 12.6387 16.4857 11.667 15.0003 11.667C13.1593 11.667 11.6669 13.1594 11.6669 15.0003C11.6669 16.4858 12.6386 17.7443 13.981 18.1749Z" fill="#5007E0"/>
</svg>
