<svg width="12" height="12" viewBox="0 0 12 12" fill="none" xmlns="http://www.w3.org/2000/svg">
<path d="M5.99962 1.09863C3.29373 1.09863 1.09766 3.29471 1.09766 6.00059C1.09766 8.70648 3.29373 10.9026 5.99962 10.9026C8.7055 10.9026 10.9016 8.70648 10.9016 6.00059C10.9016 3.29471 8.7055 1.09863 5.99962 1.09863ZM5.99962 9.92216C3.83785 9.92216 2.07805 8.16236 2.07805 6.00059C2.07805 3.83883 3.83785 2.07902 5.99962 2.07902C8.16138 2.07902 9.92119 3.83883 9.92119 6.00059C9.92119 8.16236 8.16138 9.92216 5.99962 9.92216ZM6.43589 5.55942C5.56334 5.2702 5.14177 5.08883 5.14177 4.62804C5.14177 4.12804 5.68589 3.94667 6.02903 3.94667C6.67119 3.94667 6.90648 4.43197 6.9604 4.60353L7.73491 4.2751C7.66138 4.05942 7.33295 3.33883 6.43099 3.18197V2.56922H5.57315V3.18687C4.29864 3.46138 4.28883 4.58393 4.28883 4.63785C4.28883 5.75059 5.39177 6.06432 5.93099 6.2604C6.7055 6.53491 7.04864 6.78491 7.04864 7.2555C7.04864 7.80942 6.53393 8.04471 6.07805 8.04471C5.18589 8.04471 4.93099 7.12804 4.90158 7.0202L4.08785 7.34863C4.39668 8.42216 5.2055 8.71138 5.56824 8.79961V9.43197H6.42609V8.82412C6.68099 8.78 7.90648 8.53491 7.90648 7.24569C7.91138 6.56432 7.61236 5.96628 6.43589 5.55942Z" fill="#0CDF24"/>
</svg>
