<svg width="24" height="24" viewBox="0 0 24 24" fill="none" xmlns="http://www.w3.org/2000/svg">
<g clip-path="url(#clip0_453_20)">
<path fill-rule="evenodd" clip-rule="evenodd" d="M7.33268 1.33301H4.66602C4.13558 1.33301 3.62687 1.54372 3.2518 1.91879C2.87673 2.29387 2.66602 2.80257 2.66602 3.33301V19.333C2.66602 19.8634 2.87673 20.3721 3.2518 20.7472C3.62687 21.1223 4.13558 21.333 4.66602 21.333H15.9993C16.5298 21.333 17.0385 21.1223 17.4136 20.7472C17.7886 20.3721 17.9993 19.8634 17.9993 19.333V3.33301C17.9993 2.80257 17.7886 2.29387 17.4136 1.91879C17.0385 1.54372 16.5298 1.33301 15.9993 1.33301H15.3327V2.66634H15.9993C16.1762 2.66634 16.3457 2.73658 16.4708 2.8616C16.5958 2.98663 16.666 3.1562 16.666 3.33301V19.333C16.666 19.5098 16.5958 19.6794 16.4708 19.8044C16.3457 19.9294 16.1762 19.9997 15.9993 19.9997H4.66602C4.4892 19.9997 4.31964 19.9294 4.19461 19.8044C4.06959 19.6794 3.99935 19.5098 3.99935 19.333V3.33301C3.99935 3.1562 4.06959 2.98663 4.19461 2.8616C4.31964 2.73658 4.4892 2.66634 4.66602 2.66634H7.33268V1.33301ZM8.66602 2.66634H13.9993V1.33301H8.66602V2.66634Z" fill="#5007E0"/>
<path fill-rule="evenodd" clip-rule="evenodd" d="M5.33398 8.66667C5.33398 8.48986 5.40422 8.32029 5.52925 8.19526C5.65427 8.07024 5.82384 8 6.00065 8H14.6673C14.8441 8 15.0137 8.07024 15.1387 8.19526C15.2637 8.32029 15.334 8.48986 15.334 8.66667C15.334 8.84348 15.2637 9.01305 15.1387 9.13807C15.0137 9.2631 14.8441 9.33333 14.6673 9.33333H6.00065C5.82384 9.33333 5.65427 9.2631 5.52925 9.13807C5.40422 9.01305 5.33398 8.84348 5.33398 8.66667ZM5.33398 12C5.33398 11.8232 5.40422 11.6536 5.52925 11.5286C5.65427 11.4036 5.82384 11.3333 6.00065 11.3333H10.6673C10.8441 11.3333 11.0137 11.4036 11.1387 11.5286C11.2637 11.6536 11.334 11.8232 11.334 12C11.334 12.1768 11.2637 12.3464 11.1387 12.4714C11.0137 12.5964 10.8441 12.6667 10.6673 12.6667H6.00065C5.82384 12.6667 5.65427 12.5964 5.52925 12.4714C5.40422 12.3464 5.33398 12.1768 5.33398 12ZM5.33398 15.3333C5.33398 15.1565 5.40422 14.987 5.52925 14.8619C5.65427 14.7369 5.82384 14.6667 6.00065 14.6667H13.334C13.5108 14.6667 13.6804 14.7369 13.8054 14.8619C13.9304 14.987 14.0007 15.1565 14.0007 15.3333C14.0007 15.5101 13.9304 15.6797 13.8054 15.8047C13.6804 15.9298 13.5108 16 13.334 16H6.00065C5.82384 16 5.65427 15.9298 5.52925 15.8047C5.40422 15.6797 5.33398 15.5101 5.33398 15.3333Z" fill="#5007E0"/>
<path fill-rule="evenodd" clip-rule="evenodd" d="M1.33333 2.66699V19.3337C1.33333 20.2177 1.68452 21.0656 2.30964 21.6907C2.93477 22.3158 3.78261 22.667 4.66667 22.667H16V24.0003H4.66667C3.42899 24.0003 2.24201 23.5087 1.36684 22.6335C0.491666 21.7583 0 20.5713 0 19.3337V2.66699H1.33333ZM20 4.66699C20 4.13656 20.2107 3.62785 20.5858 3.25278C20.9609 2.87771 21.4696 2.66699 22 2.66699C22.5304 2.66699 23.0391 2.87771 23.4142 3.25278C23.7893 3.62785 24 4.13656 24 4.66699V18.2023L22 21.2023L20 18.2023V4.66699ZM22 4.00033C21.8232 4.00033 21.6536 4.07056 21.5286 4.19559C21.4036 4.32061 21.3333 4.49018 21.3333 4.66699V17.7983L22 18.7983L22.6667 17.7983V4.66699C22.6667 4.49018 22.5964 4.32061 22.4714 4.19559C22.3464 4.07056 22.1768 4.00033 22 4.00033Z" fill="#5007E0"/>
<path fill-rule="evenodd" clip-rule="evenodd" d="M23.3333 7.33333H20.6667V6H23.3333V7.33333ZM13.3333 0C13.5101 0 13.6797 0.070238 13.8047 0.195262C13.9298 0.320287 14 0.489856 14 0.666667V3.33333C14 3.51014 13.9298 3.67971 13.8047 3.80474C13.6797 3.92976 13.5101 4 13.3333 4C13.1565 4 12.987 3.92976 12.8619 3.80474C12.7369 3.67971 12.6667 3.51014 12.6667 3.33333V0.666667C12.6667 0.489856 12.7369 0.320287 12.8619 0.195262C12.987 0.070238 13.1565 0 13.3333 0ZM6.66667 0C6.84348 0 7.01305 0.070238 7.13807 0.195262C7.2631 0.320287 7.33333 0.489856 7.33333 0.666667V3.33333C7.33333 3.51014 7.2631 3.67971 7.13807 3.80474C7.01305 3.92976 6.84348 4 6.66667 4C6.48986 4 6.32029 3.92976 6.19526 3.80474C6.07024 3.67971 6 3.51014 6 3.33333V0.666667C6 0.489856 6.07024 0.320287 6.19526 0.195262C6.32029 0.070238 6.48986 0 6.66667 0Z" fill="#5007E0"/>
</g>
<defs>
<clipPath id="clip0_453_20">
<rect width="24" height="24" fill="white"/>
</clipPath>
</defs>
</svg>
