<svg width="20" height="21" viewBox="0 0 20 21" fill="none" xmlns="http://www.w3.org/2000/svg">
<circle cx="10" cy="10.5" r="10" fill="#FEE5E5"/>
<path d="M9.99962 5.59863C7.29373 5.59863 5.09766 7.79471 5.09766 10.5006C5.09766 13.2065 7.29373 15.4026 9.99962 15.4026C12.7055 15.4026 14.9016 13.2065 14.9016 10.5006C14.9016 7.79471 12.7055 5.59863 9.99962 5.59863ZM9.99962 14.4222C7.83785 14.4222 6.07805 12.6624 6.07805 10.5006C6.07805 8.33883 7.83785 6.57902 9.99962 6.57902C12.1614 6.57902 13.9212 8.33883 13.9212 10.5006C13.9212 12.6624 12.1614 14.4222 9.99962 14.4222ZM10.4359 10.0594C9.56334 9.7702 9.14177 9.58883 9.14177 9.12804C9.14177 8.62804 9.68589 8.44667 10.029 8.44667C10.6712 8.44667 10.9065 8.93197 10.9604 9.10353L11.7349 8.7751C11.6614 8.55942 11.333 7.83883 10.431 7.68197V7.06922H9.57315V7.68687C8.29864 7.96138 8.28883 9.08393 8.28883 9.13785C8.28883 10.2506 9.39177 10.5643 9.93099 10.7604C10.7055 11.0349 11.0486 11.2849 11.0486 11.7555C11.0486 12.3094 10.5339 12.5447 10.078 12.5447C9.18589 12.5447 8.93099 11.628 8.90158 11.5202L8.08785 11.8486C8.39668 12.9222 9.2055 13.2114 9.56824 13.2996V13.932H10.4261V13.3241C10.681 13.28 11.9065 13.0349 11.9065 11.7457C11.9114 11.0643 11.6124 10.4663 10.4359 10.0594Z" fill="#EF1F1F"/>
</svg>
