<svg width="20" height="20" viewBox="0 0 20 20" fill="none" xmlns="http://www.w3.org/2000/svg">
<circle cx="10" cy="10" r="10" fill="#CFFCD4"/>
<path d="M9.99962 5.09863C7.29373 5.09863 5.09766 7.29471 5.09766 10.0006C5.09766 12.7065 7.29373 14.9026 9.99962 14.9026C12.7055 14.9026 14.9016 12.7065 14.9016 10.0006C14.9016 7.29471 12.7055 5.09863 9.99962 5.09863ZM9.99962 13.9222C7.83785 13.9222 6.07805 12.1624 6.07805 10.0006C6.07805 7.83883 7.83785 6.07902 9.99962 6.07902C12.1614 6.07902 13.9212 7.83883 13.9212 10.0006C13.9212 12.1624 12.1614 13.9222 9.99962 13.9222ZM10.4359 9.55942C9.56334 9.2702 9.14177 9.08883 9.14177 8.62804C9.14177 8.12804 9.68589 7.94667 10.029 7.94667C10.6712 7.94667 10.9065 8.43197 10.9604 8.60353L11.7349 8.2751C11.6614 8.05942 11.333 7.33883 10.431 7.18197V6.56922H9.57315V7.18687C8.29864 7.46138 8.28883 8.58393 8.28883 8.63785C8.28883 9.75059 9.39177 10.0643 9.93099 10.2604C10.7055 10.5349 11.0486 10.7849 11.0486 11.2555C11.0486 11.8094 10.5339 12.0447 10.078 12.0447C9.18589 12.0447 8.93099 11.128 8.90158 11.0202L8.08785 11.3486C8.39668 12.4222 9.2055 12.7114 9.56824 12.7996V13.432H10.4261V12.8241C10.681 12.78 11.9065 12.5349 11.9065 11.2457C11.9114 10.5643 11.6124 9.96628 10.4359 9.55942Z" fill="#0CDF24"/>
</svg>
